<svg width="24" height="24" viewBox="0 0 24 24" fill="none" xmlns="http://www.w3.org/2000/svg">
<path d="M5.423 3.038C4.139 3.038 3.19 4.162 3.233 5.38C3.273 6.551 3.22 8.067 2.838 9.304C2.455 10.544 1.808 11.33 0.75 11.431V12.569C1.808 12.67 2.455 13.456 2.838 14.696C3.22 15.932 3.273 17.449 3.232 18.619C3.19 19.838 4.139 20.962 5.424 20.962H18.578C19.862 20.962 20.812 19.838 20.77 18.619C20.729 17.449 20.782 15.932 21.163 14.696C21.547 13.456 22.193 12.67 23.25 12.569V11.431C22.192 11.33 21.547 10.544 21.163 9.304C20.782 8.068 20.729 6.551 20.77 5.38C20.812 4.162 19.862 3.038 18.578 3.038H5.423ZM16.004 14.071C16.004 15.749 14.753 16.767 12.676 16.767H9.14C9.08988 16.7671 9.04023 16.7574 8.99389 16.7383C8.94755 16.7192 8.90543 16.6912 8.86995 16.6558C8.83446 16.6204 8.80631 16.5783 8.7871 16.532C8.76789 16.4857 8.758 16.4361 8.758 16.386V7.614C8.758 7.56388 8.76789 7.51426 8.7871 7.46797C8.80631 7.42168 8.83446 7.37963 8.86995 7.34424C8.90543 7.30885 8.94755 7.2808 8.99389 7.26171C9.04023 7.24263 9.08988 7.23287 9.14 7.233H12.655C14.387 7.233 15.524 8.171 15.524 9.612C15.524 10.622 14.759 11.528 13.785 11.686V11.739C15.111 11.884 16.004 12.803 16.004 14.071ZM12.29 8.441H10.274V11.289H11.972C13.285 11.289 14.008 10.761 14.008 9.816C14.008 8.931 13.386 8.442 12.29 8.442V8.441ZM10.274 12.419V15.558H12.364C13.731 15.558 14.454 15.009 14.454 13.978C14.454 12.948 13.711 12.419 12.276 12.419H10.274Z" fill="black"/>
</svg>
