<svg width="468" height="25" viewBox="0 0 468 25" fill="none" xmlns="http://www.w3.org/2000/svg">
<g clip-path="url(#clip0_49_2)">
<g clip-path="url(#clip1_49_2)">
<mask id="mask0_49_2" style="mask-type:luminance" maskUnits="userSpaceOnUse" x="0" y="0" width="24" height="24">
<path d="M0 0H24V24H0V0Z" fill="white"/>
</mask>
<g mask="url(#mask0_49_2)">
<path d="M5.08002 0H6.16202V1.069H7.15202V0H8.23402V3.236H7.15202V2.153H6.16202V3.236H5.08102L5.08002 0ZM9.65602 1.073H8.70402V0H11.691V1.073H10.738V3.236H9.65602V1.073ZM12.165 0H13.293L13.987 1.137L14.68 0H15.808V3.236H14.731V1.632L13.987 2.783H13.968L13.223 1.633V3.236H12.165V0ZM16.346 0H17.429V2.167H18.949V3.237H16.346V0Z" fill="black"/>
<path fill-rule="evenodd" clip-rule="evenodd" d="M5.046 22.072L3 4.717H21L18.953 22.07L11.99 24L5.046 22.072ZM9.183 12.572L8.989 10.392H17.134L17.324 8.264H6.664L7.238 14.701H14.615L14.368 17.461L11.994 18.103H11.992L9.622 17.463L9.47 15.766H7.332L7.63 19.108L11.99 20.318L16.357 19.108L16.889 13.144L16.941 12.573H9.183V12.572Z" fill="black"/>
</g>
</g>
<g clip-path="url(#clip2_49_2)">
<path d="M44.502 0H47.08V1.078H45.58V2.156H47.08V3.234H44.502V0ZM47.595 0H50.174V0.938H48.674V1.125H50.174V3.281H47.595V2.297H49.095V2.109H47.595V0ZM50.69 0H53.267V0.938H51.767V1.125H53.267V3.281H50.69V2.297H52.19V2.109H50.69V0Z" fill="black"/>
<path fill-rule="evenodd" clip-rule="evenodd" d="M48.991 24L42.047 22.072L40 4.717H58L55.954 22.07L48.991 24ZM44.047 12.573L44.238 14.701H51.615L51.368 17.461L48.994 18.103H48.992L46.622 17.463L46.47 15.766H44.333L44.631 19.108L48.991 20.318L53.358 19.108L53.89 13.144L53.942 12.573L54.326 8.264H43.664L43.858 10.393H51.994L51.8 12.573H44.047Z" fill="black"/>
</g>
<path d="M75.5 1.5V22.5H96.5V1.5H75.5ZM86.9285 17.8777C86.9285 19.9215 85.7285 20.8545 83.9803 20.8545C82.4008 20.8545 81.4865 20.0392 81.0178 19.05L82.6258 18.0795C82.9355 18.6278 83.2167 19.092 83.8962 19.092C84.5427 19.092 84.9553 18.8385 84.9553 17.85V11.142H86.9285V17.8777ZM91.5965 20.8545C89.7635 20.8545 88.5777 19.983 88.001 18.8385L89.609 17.9108C90.0313 18.6 90.584 19.1108 91.5545 19.1108C92.3698 19.1108 92.8955 18.7027 92.8955 18.1357C92.8955 17.4607 92.3607 17.2215 91.4562 16.8232L90.9642 16.6125C89.5392 16.008 88.5972 15.2437 88.5972 13.6357C88.5972 12.1545 89.7267 11.0295 91.4847 11.0295C92.741 11.0295 93.641 11.4653 94.2883 12.609L92.7507 13.5938C92.4132 12.9893 92.0472 12.75 91.4802 12.75C90.9042 12.75 90.5383 13.116 90.5383 13.5938C90.5383 14.1847 90.9043 14.4233 91.7525 14.7938L92.2445 15.0045C93.923 15.7215 94.865 16.458 94.865 18.1072C94.865 19.8795 93.4677 20.8538 91.5972 20.8538L91.5965 20.8545Z" fill="black"/>
<path d="M123 10.11C124.03 10.11 124.87 10.95 124.87 12C124.87 13 124.03 13.85 123 13.85C121.97 13.85 121.13 13 121.13 12C121.13 10.95 121.97 10.11 123 10.11ZM118.37 20C119 20.38 120.38 19.8 121.97 18.3C121.45 17.71 120.94 17.07 120.46 16.4C119.654 16.3229 118.853 16.2027 118.06 16.04C117.55 18.18 117.74 19.65 118.37 20ZM119.08 14.26L118.79 13.75C118.68 14.04 118.57 14.33 118.5 14.61C118.77 14.67 119.07 14.72 119.38 14.77L119.08 14.26ZM125.62 13.5L126.43 12L125.62 10.5C125.32 9.97 125 9.5 124.71 9.03C124.17 9 123.6 9 123 9C122.4 9 121.83 9 121.29 9.03C121 9.5 120.68 9.97 120.38 10.5L119.57 12L120.38 13.5C120.68 14.03 121 14.5 121.29 14.97C121.83 15 122.4 15 123 15C123.6 15 124.17 15 124.71 14.97C125 14.5 125.32 14.03 125.62 13.5ZM123 6.78C122.81 7 122.61 7.23 122.41 7.5H123.59C123.39 7.23 123.19 7 123 6.78ZM123 17.22C123.19 17 123.39 16.77 123.59 16.5H122.41C122.61 16.77 122.81 17 123 17.22ZM127.62 4C127 3.62 125.62 4.2 124.03 5.7C124.55 6.29 125.06 6.93 125.54 7.6C126.36 7.68 127.17 7.8 127.94 7.96C128.45 5.82 128.26 4.35 127.62 4ZM126.92 9.74L127.21 10.25C127.32 9.96 127.43 9.67 127.5 9.39C127.23 9.33 126.93 9.28 126.62 9.23L126.92 9.74ZM128.37 2.69C129.84 3.53 130 5.74 129.38 8.32C131.92 9.07 133.75 10.31 133.75 12C133.75 13.69 131.92 14.93 129.38 15.68C130 18.26 129.84 20.47 128.37 21.31C126.91 22.15 124.92 21.19 123 19.36C121.08 21.19 119.09 22.15 117.62 21.31C116.16 20.47 116 18.26 116.62 15.68C114.08 14.93 112.25 13.69 112.25 12C112.25 10.31 114.08 9.07 116.62 8.32C116 5.74 116.16 3.53 117.62 2.69C119.09 1.85 121.08 2.81 123 4.64C124.92 2.81 126.91 1.85 128.37 2.69ZM128.08 12C128.42 12.75 128.72 13.5 128.97 14.26C131.07 13.63 132.25 12.73 132.25 12C132.25 11.27 131.07 10.37 128.97 9.74C128.72 10.5 128.42 11.25 128.08 12ZM117.92 12C117.58 11.25 117.28 10.5 117.03 9.74C114.93 10.37 113.75 11.27 113.75 12C113.75 12.73 114.93 13.63 117.03 14.26C117.28 13.5 117.58 12.75 117.92 12ZM126.92 14.26L126.62 14.77C126.93 14.72 127.23 14.67 127.5 14.61C127.43 14.33 127.32 14.04 127.21 13.75L126.92 14.26ZM124.03 18.3C125.62 19.8 127 20.38 127.62 20C128.26 19.65 128.45 18.18 127.94 16.04C127.17 16.2 126.36 16.32 125.54 16.4C125.06 17.07 124.55 17.71 124.03 18.3ZM119.08 9.74L119.38 9.23C119.07 9.28 118.77 9.33 118.5 9.39C118.57 9.67 118.68 9.96 118.79 10.25L119.08 9.74ZM121.97 5.7C120.38 4.2 119 3.62 118.37 4C117.74 4.35 117.55 5.82 118.06 7.96C118.853 7.79729 119.654 7.67712 120.46 7.6C120.94 6.93 121.45 6.29 121.97 5.7Z" fill="black"/>
<g clip-path="url(#clip3_49_2)">
<mask id="mask1_49_2" style="mask-type:luminance" maskUnits="userSpaceOnUse" x="148" y="1" width="24" height="24">
<path d="M148 1H172V25H148V1Z" fill="white"/>
</mask>
<g mask="url(#mask1_49_2)">
<path d="M159.914 1C153.82 1 154.2 3.656 154.2 3.656L154.207 6.408H160.021V7.234H151.9C151.9 7.234 148 6.789 148 12.969C148 19.149 151.403 18.929 151.403 18.929H153.433V16.062C153.433 16.062 153.324 12.642 156.783 12.642H162.549C162.549 12.642 165.789 12.694 165.789 9.494V4.202C165.789 4.202 166.281 1 159.914 1ZM156.708 2.85C157.286 2.85 157.754 3.32 157.754 3.902C157.754 4.483 157.286 4.953 156.708 4.953C156.129 4.953 155.662 4.483 155.662 3.902C155.662 3.32 156.129 2.85 156.708 2.85Z" fill="black"/>
<path d="M160.087 25C166.179 25 165.799 22.344 165.799 22.344L165.792 19.592H159.978V18.766H168.101C168.101 18.766 172.001 19.211 172.001 13.031C172.001 6.851 168.597 7.071 168.597 7.071H166.567V9.938C166.567 9.938 166.676 13.358 163.217 13.358H157.452C157.452 13.358 154.212 13.306 154.212 16.506V21.798C154.212 21.798 153.72 25 160.087 25ZM163.293 23.15C162.714 23.15 162.247 22.68 162.247 22.098C162.247 21.517 162.714 21.047 163.293 21.047C163.871 21.047 164.339 21.517 164.339 22.098C164.339 22.68 163.871 23.15 163.293 23.15Z" fill="black"/>
</g>
</g>
<path d="M207.031 7.28125L207.088 7.24375C206.975 7.0375 206.806 6.85 206.638 6.75625L197.581 1.54375C197.431 1.45 197.225 1.4125 197 1.4125C196.775 1.4125 196.569 1.46875 196.419 1.54375L187.419 6.775C187.1 6.9625 186.875 7.43125 186.875 7.7875V18.2312C186.875 18.4375 186.912 18.6625 187.044 18.8687L187.006 18.8875C187.1 19.0375 187.231 19.1687 187.363 19.2437L196.4 24.475C196.55 24.5687 196.756 24.6062 196.981 24.6062C197.206 24.6062 197.412 24.55 197.562 24.475L206.562 19.2437C206.881 19.0562 207.106 18.5875 207.106 18.2312V7.76875C207.125 7.61875 207.106 7.45 207.031 7.28125ZM197 17.5937C198.706 17.5937 200.206 16.6562 200.994 15.2687L203.412 16.6937C202.137 18.9062 199.738 20.4062 197 20.4062C192.913 20.4062 189.594 17.0875 189.594 13C189.594 8.9125 192.913 5.59375 197 5.59375C199.756 5.59375 202.156 7.1125 203.431 9.34375L200.994 10.75C200.206 9.34375 198.706 8.40625 197 8.40625C194.469 8.40625 192.406 10.4687 192.406 13C192.406 15.5312 194.469 17.5937 197 17.5937Z" fill="black"/>
<g clip-path="url(#clip4_49_2)">
<path d="M244.395 7C244.227 6.71125 243.996 6.457 243.742 6.30925L234.925 1.219C234.418 0.925749 233.585 0.925749 233.077 1.219L224.261 6.30925C223.753 6.6025 223.335 7.324 223.335 7.9105V18.0902C223.335 18.3835 223.44 18.7112 223.608 19C223.772 19.2887 224.007 19.543 224.261 19.6877L233.073 24.781C233.585 25.0742 234.413 25.0742 234.921 24.781L243.737 19.6877C243.991 19.543 244.222 19.2887 244.39 19C244.558 18.7112 244.66 18.3827 244.66 18.0902V7.9105C244.663 7.61725 244.558 7.2895 244.395 7.00075V7ZM234 20.1092C230.078 20.1092 226.891 16.9225 226.891 13C226.891 9.0775 230.077 5.89075 234 5.89075C235.247 5.89296 236.471 6.22187 237.551 6.84469C238.631 7.46752 239.529 8.36251 240.156 9.4405L237.078 11.2225C236.765 10.6831 236.316 10.235 235.776 9.92303C235.236 9.61104 234.624 9.44596 234 9.44425C232.039 9.44425 230.445 11.038 230.445 12.9992C230.445 14.9605 232.039 16.5542 234 16.5542C234.624 16.5526 235.236 16.3876 235.776 16.0756C236.316 15.7636 236.765 15.3155 237.078 14.776L240.156 16.558C239.529 17.636 238.631 18.531 237.551 19.1538C236.471 19.7766 235.247 20.1055 234 20.1077V20.1092ZM241.109 13.3952H240.32V14.1842H239.527V13.3952H238.738V12.6055H239.527V11.8165H240.32V12.6055H241.109V13.3952ZM244.07 13.3952H243.281V14.1842H242.492V13.3952H241.703V12.6055H242.492V11.8165H243.281V12.6055H244.07V13.3952Z" fill="black"/>
</g>
<path d="M281.031 7.28125L281.088 7.24375C280.975 7.0375 280.806 6.85 280.638 6.75625L271.581 1.54375C271.431 1.45 271.225 1.4125 271 1.4125C270.775 1.4125 270.569 1.46875 270.419 1.54375L261.419 6.775C261.1 6.9625 260.875 7.43125 260.875 7.7875V18.2312C260.875 18.4375 260.912 18.6625 261.044 18.8687L261.006 18.8875C261.1 19.0375 261.231 19.1687 261.363 19.2437L270.4 24.475C270.55 24.5687 270.756 24.6062 270.981 24.6062C271.206 24.6062 271.412 24.55 271.562 24.475L280.562 19.2437C280.881 19.0562 281.106 18.5875 281.106 18.2312V7.76875C281.125 7.61875 281.106 7.45 281.031 7.28125ZM271 20.4062C266.913 20.4062 263.594 17.0875 263.594 13C263.594 8.9125 266.913 5.59375 271 5.59375C273.756 5.59375 276.156 7.1125 277.431 9.34375L274.994 10.75C274.206 9.34375 272.706 8.40625 271 8.40625C268.469 8.40625 266.406 10.4687 266.406 13C266.406 15.5312 268.469 17.5937 271 17.5937C272.706 17.5937 274.206 16.6562 274.994 15.2687L277.412 16.6937C276.137 18.9062 273.738 20.4062 271 20.4062ZM280.562 12.625H279.963L279.794 13.375H280.562V14.3125H279.625L279.4 15.4375H278.481L278.706 14.3125H277.994L277.769 15.4375H276.869L277.094 14.3125H276.625V13.375H277.281L277.45 12.625H276.625V11.6875H277.619L277.844 10.5625H278.763L278.537 11.6875H279.25L279.475 10.5625H280.375L280.15 11.6875H280.562V12.625ZM278.181 13.375H278.894L279.062 12.625H278.35L278.181 13.375Z" fill="black"/>
<path d="M314.375 1H301.625C298.518 1 296 3.5184 296 6.625V19.375C296 22.4816 298.518 25 301.625 25H314.375C317.482 25 320 22.4816 320 19.375V6.625C320 3.5184 317.482 1 314.375 1Z" fill="black"/>
<path d="M305.528 18.1205C305.528 18.1205 304.808 18.5587 306.029 18.6841C307.504 18.8719 308.283 18.8405 309.911 18.5277C309.911 18.5277 310.349 18.8098 310.944 19.0287C307.281 20.5939 302.648 18.9347 305.528 18.1205ZM305.059 16.0857C305.059 16.0857 304.276 16.6806 305.497 16.8056C307.093 16.9621 308.346 16.9935 310.506 16.5556C310.506 16.5556 310.788 16.8688 311.258 17.0252C306.844 18.3401 301.897 17.1502 305.059 16.086V16.0857ZM313.7 19.6547C313.7 19.6547 314.232 20.0929 313.105 20.4376C311.007 21.0636 304.307 21.2518 302.429 20.4376C301.772 20.1555 303.024 19.7483 303.431 19.6862C303.838 19.5922 304.057 19.5922 304.057 19.5922C303.337 19.0912 299.266 20.6253 301.99 21.0668C309.473 22.2881 315.641 20.5347 313.699 19.6579L313.7 19.6547ZM305.873 13.9565C305.873 13.9565 302.46 14.7707 304.651 15.0522C305.59 15.1772 307.438 15.1461 309.16 15.0208C310.568 14.8957 311.98 14.6451 311.98 14.6451C311.98 14.6451 311.479 14.8643 311.135 15.0833C307.657 15.992 300.989 15.585 302.898 14.6457C304.527 13.8629 305.873 13.9565 305.873 13.9565ZM311.977 17.3691C315.484 15.5532 313.856 13.8001 312.729 14.0193C312.446 14.0819 312.322 14.1444 312.322 14.1444C312.322 14.1444 312.415 13.9565 312.635 13.8944C314.857 13.1116 316.611 16.2424 311.915 17.4634C311.915 17.4634 311.946 17.432 311.977 17.3695V17.3691ZM306.217 22.3154C309.598 22.5347 314.764 22.1903 314.889 20.5933C314.889 20.5933 314.639 21.2193 312.103 21.689C309.223 22.2212 305.653 22.1586 303.556 21.814C303.556 21.814 303.994 22.1897 306.217 22.315L306.217 22.3154Z" fill="white"/>
<path d="M309.845 3.625C309.845 3.625 311.786 5.59741 307.998 8.57125C304.961 10.9818 307.309 12.3595 307.998 13.9245C306.214 12.3281 304.931 10.9189 305.807 9.604C307.094 7.66403 310.631 6.72475 309.845 3.625ZM308.844 12.6102C309.752 13.6433 308.594 14.5826 308.594 14.5826C308.594 14.5826 310.91 13.3933 309.846 11.9213C308.875 10.5124 308.124 9.82356 312.194 7.47522C312.194 7.47522 305.776 9.07159 308.844 12.6095L308.844 12.6102Z" fill="white"/>
<path fill-rule="evenodd" clip-rule="evenodd" d="M379.421 7.803C378.731 7.62956 378.039 7.68525 377.31 7.79888C377.31 9.07481 377.307 10.3164 377.317 11.5583C377.317 11.6218 377.413 11.7324 377.474 11.7409C378.27 11.8483 379.061 11.8569 379.805 11.4943C380.575 11.1193 380.967 10.3352 380.865 9.41456C380.773 8.57625 380.277 8.01806 379.421 7.803ZM393.812 11.9931V0.615938C393.812 0.222938 393.817 0.1875 393.435 0.1875H370.652C370.281 0.1875 370.188 0.223125 370.188 0.597375V23.3803C370.188 23.7587 370.235 23.7593 370.602 23.7593C378.206 23.7594 385.833 23.7576 393.437 23.7662C393.732 23.7666 393.811 23.688 393.81 23.3989C393.8 19.5969 393.812 15.7946 393.812 11.9931ZM380.566 13.0881C379.524 13.4597 378.438 13.4805 377.312 13.3933V17.625H375.25V17.3621C375.25 13.8193 375.234 10.2769 375.224 6.73425C375.223 6.44006 375.269 6.29794 375.601 6.26419C377.163 6.10444 378.716 5.92481 380.27 6.28913C381.94 6.68044 382.903 7.78444 382.976 9.30975C383.066 11.1986 382.236 12.4924 380.566 13.0881ZM388.874 15.4794C388.795 16.5615 388.185 17.2719 387.184 17.6154C385.845 18.0752 384.513 17.9685 383.204 17.4484C382.99 17.3631 382.948 17.2551 383.019 17.0366C383.148 16.638 383.242 16.2281 383.342 15.858C383.895 16.0204 384.421 16.2231 384.966 16.3189C385.351 16.3866 385.767 16.3468 386.158 16.2855C386.509 16.2304 386.762 15.9923 386.819 15.6158C386.878 15.2331 386.762 14.9016 386.424 14.6979C386.156 14.5363 385.86 14.4206 385.576 14.2851C385.12 14.067 384.634 13.896 384.213 13.6232C382.557 12.5494 383.096 10.5514 384.201 9.79894C384.793 9.39656 385.447 9.21806 386.147 9.1935C386.971 9.16463 387.764 9.30675 388.543 9.68531L388.131 11.1458C387.805 11.0303 387.501 10.8803 387.181 10.8206C386.8 10.7498 386.401 10.7102 386.017 10.7415C385.503 10.7837 385.201 11.139 385.201 11.5796C385.201 11.8406 385.3 12.0615 385.518 12.1881C385.83 12.3698 386.162 12.5196 386.49 12.6716C386.846 12.8361 387.221 12.9624 387.563 13.1501C388.476 13.6508 388.952 14.4251 388.874 15.4794Z" fill="black"/>
<path d="M343.11 18H340.5L335.59 13L340.5 8H343.11L344.42 5.74L351.21 4L353.08 10.74L351.77 13L353.08 15.26L351.21 22L344.42 20.26L343.11 18ZM343.25 17.75L348.38 19.13L345.42 14H339.5L343.25 17.75ZM350.12 18.13L351.5 13L350.12 7.87L347.15 13L350.12 18.13ZM343.25 8.25L339.5 12H345.42L348.38 6.87L343.25 8.25Z" fill="black"/>
<g clip-path="url(#clip5_49_2)">
<path d="M428.375 0H409.625C408.175 0 407 1.17525 407 2.625V21.375C407 22.8247 408.175 24 409.625 24H428.375C429.825 24 431 22.8247 431 21.375V2.625C431 1.17525 429.825 0 428.375 0Z" fill="black"/>
<path d="M424.473 8.83106V15.0397C424.473 17.1791 424.316 18.2051 423.847 19.0921C423.412 19.9445 422.838 20.4835 421.655 21.0749L419.168 19.8923C420.351 19.3358 420.925 18.8488 421.29 18.1007C421.673 17.3356 421.795 16.4485 421.795 14.1181V8.83106H424.473ZM420.212 4.69481V17.0922C418.838 17.353 417.829 17.4574 416.734 17.4574C413.464 17.4574 411.76 15.9792 411.76 13.1442C411.76 10.4137 413.568 8.63981 416.368 8.63981C416.803 8.63981 417.134 8.6745 417.534 8.77884V4.695H420.212L420.212 4.69481ZM416.629 10.7963C415.273 10.7963 414.49 11.6311 414.49 13.0919C414.49 14.5182 415.238 15.3007 416.612 15.3007C416.908 15.3007 417.151 15.2834 417.534 15.2314V10.9353C417.221 10.831 416.96 10.7963 416.629 10.7963ZM424.473 4.70906V7.45706H421.795V4.70916L424.473 4.70906Z" fill="#FFFFFD"/>
</g>
<g clip-path="url(#clip6_49_2)">
<path d="M467.547 10.9305L457.068 0.453C456.925 0.309452 456.754 0.19558 456.567 0.117889C456.379 0.0401977 456.178 0.000209808 455.975 0.000209808C455.772 0.000209808 455.571 0.0401977 455.384 0.117889C455.196 0.19558 455.026 0.309452 454.882 0.453L452.707 2.628L455.467 5.388C455.793 5.27686 456.143 5.25948 456.478 5.33782C456.813 5.41617 457.119 5.5871 457.362 5.83109C457.604 6.07508 457.773 6.38232 457.849 6.71773C457.925 7.05314 457.906 7.40322 457.792 7.728L460.452 10.389C460.845 10.2505 461.274 10.25 461.668 10.3878C462.062 10.5256 462.397 10.7933 462.618 11.147C462.839 11.5006 462.934 11.919 462.885 12.3334C462.837 12.7477 462.649 13.1332 462.352 13.4265C462.052 13.7287 461.656 13.9172 461.232 13.9599C460.808 14.0025 460.383 13.8967 460.028 13.6605C459.674 13.4243 459.412 13.0723 459.289 12.6646C459.165 12.257 459.186 11.819 459.349 11.4255L456.87 8.9445V15.474C457.247 15.6606 457.548 15.9707 457.724 16.3526C457.9 16.7345 457.94 17.1653 457.837 17.573C457.734 17.9807 457.494 18.3407 457.158 18.5931C456.822 18.8455 456.409 18.975 455.989 18.96C455.568 18.945 455.166 18.7864 454.848 18.5106C454.531 18.2349 454.317 17.8586 454.244 17.4446C454.17 17.0306 454.24 16.6038 454.443 16.2354C454.646 15.867 454.969 15.5792 455.358 15.42V8.8305C455.133 8.73848 454.929 8.60293 454.757 8.43164C454.585 8.26036 454.449 8.05674 454.356 7.83252C454.263 7.60831 454.216 7.36792 454.216 7.12524C454.217 6.88255 454.265 6.64235 454.359 6.4185L451.639 3.6975L444.454 10.8825C444.311 11.026 444.197 11.1963 444.119 11.3838C444.042 11.5713 444.002 11.7723 444.002 11.9753C444.002 12.1782 444.042 12.3792 444.119 12.5667C444.197 12.7542 444.311 12.9245 444.454 13.068L454.933 23.547C455.077 23.6905 455.247 23.8044 455.435 23.8821C455.622 23.9598 455.823 23.9998 456.026 23.9998C456.229 23.9998 456.43 23.9598 456.618 23.8821C456.805 23.8044 456.976 23.6905 457.119 23.547L467.549 13.1175C467.838 12.8275 468.001 12.4345 468.001 12.0248C468.001 11.615 467.838 11.222 467.549 10.932" fill="black"/>
</g>
</g>
<defs>
<clipPath id="clip0_49_2">
<rect width="468" height="25" fill="white"/>
</clipPath>
<clipPath id="clip1_49_2">
<rect width="24" height="24" fill="white"/>
</clipPath>
<clipPath id="clip2_49_2">
<rect width="24" height="24" fill="white" transform="translate(37)"/>
</clipPath>
<clipPath id="clip3_49_2">
<rect width="24" height="24" fill="white" transform="translate(148 1)"/>
</clipPath>
<clipPath id="clip4_49_2">
<rect width="24" height="24" fill="white" transform="translate(222 1)"/>
</clipPath>
<clipPath id="clip5_49_2">
<rect width="24" height="24" fill="white" transform="translate(407)"/>
</clipPath>
<clipPath id="clip6_49_2">
<rect width="24" height="24" fill="white" transform="translate(444)"/>
</clipPath>
</defs>
</svg>
