<svg width="24" height="24" viewBox="0 0 24 24" fill="none" xmlns="http://www.w3.org/2000/svg">
<g clip-path="url(#clip0_49_47)">
<path d="M23.547 10.9305L13.068 0.453C12.9245 0.309452 12.7542 0.19558 12.5667 0.117889C12.3792 0.0401977 12.1782 0.000209808 11.9752 0.000209808C11.7723 0.000209808 11.5713 0.0401977 11.3838 0.117889C11.1963 0.19558 11.026 0.309452 10.8825 0.453L8.7075 2.628L11.4675 5.388C11.793 5.27686 12.1432 5.25948 12.4781 5.33782C12.813 5.41617 13.1192 5.5871 13.3616 5.83109C13.604 6.07508 13.773 6.38232 13.8492 6.71773C13.9254 7.05314 13.9057 7.40322 13.7925 7.728L16.452 10.389C16.8455 10.2505 17.2744 10.25 17.6681 10.3878C18.0619 10.5256 18.3969 10.7933 18.6182 11.147C18.8395 11.5006 18.9337 11.919 18.8854 12.3334C18.8371 12.7477 18.6492 13.1332 18.3525 13.4265C18.0522 13.7287 17.6563 13.9172 17.2324 13.9599C16.8085 14.0025 16.3829 13.8967 16.0284 13.6605C15.6739 13.4243 15.4124 13.0723 15.2885 12.6646C15.1647 12.257 15.1863 11.819 15.3495 11.4255L12.87 8.9445V15.474C13.2469 15.6606 13.5484 15.9707 13.7244 16.3526C13.9004 16.7345 13.9402 17.1653 13.8371 17.573C13.734 17.9807 13.4943 18.3407 13.1579 18.5931C12.8215 18.8455 12.4088 18.975 11.9885 18.96C11.5683 18.945 11.1658 18.7864 10.8483 18.5106C10.5308 18.2349 10.3174 17.8586 10.2437 17.4446C10.1699 17.0306 10.2403 16.6038 10.4431 16.2354C10.6458 15.867 10.9688 15.5792 11.358 15.42V8.8305C11.1334 8.73848 10.9293 8.60293 10.7574 8.43164C10.5854 8.26036 10.4491 8.05674 10.3562 7.83252C10.2634 7.60831 10.2158 7.36792 10.2163 7.12524C10.2168 6.88255 10.2653 6.64235 10.359 6.4185L7.6395 3.6975L0.454499 10.8825C0.310952 11.026 0.197079 11.1963 0.119388 11.3838C0.0416969 11.5713 0.00170898 11.7723 0.00170898 11.9753C0.00170898 12.1782 0.0416969 12.3792 0.119388 12.5667C0.197079 12.7542 0.310952 12.9245 0.454499 13.068L10.9335 23.547C11.077 23.6905 11.2473 23.8044 11.4348 23.8821C11.6223 23.9598 11.8233 23.9998 12.0262 23.9998C12.2292 23.9998 12.4302 23.9598 12.6177 23.8821C12.8052 23.8044 12.9755 23.6905 13.119 23.547L23.5485 13.1175C23.838 12.8275 24.0007 12.4345 24.0007 12.0248C24.0007 11.615 23.838 11.222 23.5485 10.932" fill="black"/>
</g>
<defs>
<clipPath id="clip0_49_47">
<rect width="24" height="24" fill="white"/>
</clipPath>
</defs>
</svg>
