<svg width="24" height="24" viewBox="0 0 24 24" fill="none" xmlns="http://www.w3.org/2000/svg">
<path d="M18.375 0H5.625C2.5184 0 0 2.5184 0 5.625V18.375C0 21.4816 2.5184 24 5.625 24H18.375C21.4816 24 24 21.4816 24 18.375V5.625C24 2.5184 21.4816 0 18.375 0Z" fill="black"/>
<path d="M9.5282 17.1205C9.5282 17.1205 8.8082 17.5587 10.0293 17.6841C11.5038 17.8719 12.2834 17.8405 13.9112 17.5277C13.9112 17.5277 14.3494 17.8098 14.9443 18.0287C11.281 19.5939 6.64773 17.9347 9.5282 17.1205ZM9.05861 15.0857C9.05861 15.0857 8.27579 15.6806 9.49679 15.8056C11.0932 15.9621 12.3459 15.9935 14.5061 15.5556C14.5061 15.5556 14.7882 15.8688 15.2575 16.0252C10.8435 17.3401 5.89661 16.1502 9.05861 15.086V15.0857ZM17.6995 18.6547C17.6995 18.6547 18.2317 19.0929 17.1046 19.4376C15.0069 20.0636 8.3072 20.2518 6.42873 19.4376C5.77164 19.1555 7.02376 18.7483 7.43054 18.6862C7.83761 18.5922 8.0566 18.5922 8.0566 18.5922C7.3366 18.0912 3.26645 19.6253 5.99026 20.0668C13.4727 21.2881 19.6405 19.5347 17.6993 18.6579L17.6995 18.6547ZM9.87254 12.9565C9.87254 12.9565 6.45986 13.7707 8.65117 14.0522C9.59045 14.1772 11.4375 14.1461 13.1595 14.0208C14.5684 13.8957 15.9804 13.6451 15.9804 13.6451C15.9804 13.6451 15.4794 13.8643 15.1351 14.0833C11.6571 14.992 4.98854 14.585 6.89842 13.6457C8.52686 12.8629 9.87254 12.9565 9.87254 12.9565ZM15.9772 16.3691C19.4841 14.5532 17.8556 12.8001 16.7286 13.0193C16.4465 13.0819 16.3215 13.1444 16.3215 13.1444C16.3215 13.1444 16.4154 12.9565 16.6346 12.8944C18.8574 12.1116 20.6109 15.2424 15.9147 16.4634C15.9147 16.4634 15.9461 16.432 15.9772 16.3695V16.3691ZM10.2168 21.3154C13.5981 21.5347 18.7638 21.1903 18.8891 19.5933C18.8891 19.5933 18.6391 20.2193 16.1029 20.689C13.2227 21.2212 9.65326 21.1586 7.55589 20.814C7.55589 20.814 7.99407 21.1897 10.2171 21.315L10.2168 21.3154Z" fill="white"/>
<path d="M13.8454 2.625C13.8454 2.625 15.7864 4.59741 11.9984 7.57125C8.96144 9.98175 11.3092 11.3595 11.9984 12.9245C10.2138 11.3281 8.93069 9.91894 9.80678 8.604C11.0935 6.66403 14.6308 5.72475 13.8454 2.625ZM12.8437 11.6102C13.7515 12.6433 12.5937 13.5826 12.5937 13.5826C12.5937 13.5826 14.9103 12.3933 13.8461 10.9213C12.8754 9.51244 12.1241 8.82356 16.1942 6.47522C16.1942 6.47522 9.77603 8.07159 12.8444 11.6095L12.8437 11.6102Z" fill="white"/>
</svg>
