<svg width="324" height="34" viewBox="0 0 324 34" fill="none" xmlns="http://www.w3.org/2000/svg">
<g clip-path="url(#clip0_40_16)">
<path d="M18.381 0.00205066C19.5972 -0.00261638 20.8134 0.00960715 22.0293 0.0387175L22.3526 0.0503841C22.726 0.0637174 23.0943 0.080384 23.5393 0.100384C25.3126 0.183717 26.5226 0.463718 27.5843 0.875384C28.6843 1.29872 29.611 1.87205 30.5376 2.79872C31.3849 3.63139 32.0407 4.63863 32.4593 5.75038C32.871 6.81205 33.151 8.02372 33.2343 9.79705C33.2543 10.2404 33.271 10.6104 33.2843 10.9837L33.2943 11.3071C33.3239 12.5224 33.3367 13.738 33.3326 14.9537L33.3343 16.1971V18.3804C33.3384 19.5966 33.3256 20.8128 33.296 22.0287L33.286 22.3521C33.2726 22.7254 33.256 23.0937 33.236 23.5387C33.1526 25.312 32.8693 26.5221 32.4593 27.5837C32.042 28.6967 31.3861 29.7047 30.5376 30.5371C29.7042 31.3843 28.6965 32.04 27.5843 32.4587C26.5226 32.8704 25.3126 33.1504 23.5393 33.2337C23.0943 33.2537 22.726 33.2704 22.3526 33.2837L22.0293 33.2937C20.8134 33.3233 19.5972 33.3361 18.381 33.3321L17.1376 33.3337H14.956C13.7397 33.3378 12.5235 33.325 11.3076 33.2954L10.9843 33.2854C10.5886 33.271 10.1931 33.2544 9.79763 33.2354C8.02429 33.1521 6.81429 32.8687 5.75096 32.4587C4.63877 32.041 3.63136 31.3851 2.79929 30.5371C1.95104 29.7042 1.29467 28.6963 0.875962 27.5837C0.464295 26.5221 0.184295 25.312 0.100962 23.5387C0.0823997 23.1432 0.0657329 22.7477 0.0509616 22.3521L0.0426285 22.0287C0.0119011 20.8129 -0.00198924 19.5966 0.000961668 18.3804V14.9537C-0.00368994 13.7381 0.00853358 12.5224 0.0376285 11.3071L0.0492951 10.9837C0.0626284 10.6104 0.079295 10.2404 0.099295 9.79705C0.182628 8.02205 0.462628 6.81372 0.874295 5.75038C1.29325 4.63808 1.9509 3.63113 2.80096 2.80038C3.63245 1.95164 4.63923 1.29467 5.75096 0.875384C6.81429 0.463718 8.02263 0.183717 9.79763 0.100384L10.9843 0.0503841L11.3076 0.0420509C12.5229 0.011339 13.7386 -0.00255142 14.9543 0.000384113L18.381 0.00205066ZM16.6676 8.33538C15.5635 8.31977 14.4672 8.52376 13.4426 8.9355C12.418 9.34724 11.4854 9.95852 10.699 10.7338C9.9127 11.5091 9.28829 12.4329 8.86211 13.4517C8.43592 14.4704 8.21645 15.5636 8.21645 16.6679C8.21645 17.7722 8.43592 18.8654 8.86211 19.8841C9.28829 20.9028 9.9127 21.8267 10.699 22.602C11.4854 23.3773 12.418 23.9885 13.4426 24.4003C14.4672 24.812 15.5635 25.016 16.6676 25.0004C18.8778 25.0004 20.9974 24.1224 22.5602 22.5596C24.123 20.9968 25.001 18.8772 25.001 16.6671C25.001 14.4569 24.123 12.3373 22.5602 10.7745C20.9974 9.21169 18.8778 8.33538 16.6676 8.33538ZM16.6676 11.6687C17.3318 11.6565 17.9918 11.7767 18.609 12.0224C19.2261 12.2681 19.7882 12.6343 20.2623 13.0996C20.7363 13.565 21.1129 14.1201 21.37 14.7326C21.6271 15.3451 21.7596 16.0027 21.7597 16.667C21.7598 17.3313 21.6276 17.989 21.3707 18.6016C21.1138 19.2142 20.7374 19.7695 20.2634 20.2349C19.7895 20.7004 19.2276 21.0668 18.6105 21.3127C17.9934 21.5586 17.3335 21.6791 16.6693 21.6671C15.3432 21.6671 14.0714 21.1403 13.1338 20.2026C12.1961 19.2649 11.6693 17.9931 11.6693 16.6671C11.6693 15.341 12.1961 14.0692 13.1338 13.1315C14.0714 12.1938 15.3432 11.6671 16.6693 11.6671L16.6676 11.6687ZM25.4176 5.83538C24.8799 5.8569 24.3714 6.08564 23.9986 6.47367C23.6258 6.8617 23.4176 7.37894 23.4176 7.91705C23.4176 8.45516 23.6258 8.9724 23.9986 9.36043C24.3714 9.74847 24.8799 9.9772 25.4176 9.99872C25.9702 9.99872 26.5001 9.77922 26.8908 9.38852C27.2815 8.99782 27.501 8.46792 27.501 7.91538C27.501 7.36285 27.2815 6.83295 26.8908 6.44225C26.5001 6.05154 25.9702 5.83205 25.4176 5.83205V5.83538Z" fill="#DFDCFF"/>
<path d="M86.7843 5.55038C84.5676 4.51705 82.1676 3.76705 79.6676 3.33372C79.6457 3.33302 79.6239 3.33713 79.6037 3.34577C79.5836 3.35441 79.5656 3.36736 79.551 3.38372C79.251 3.93372 78.901 4.65038 78.6676 5.20038C76.016 4.80038 73.3193 4.80038 70.6676 5.20038C70.4343 4.63372 70.0843 3.93372 69.7676 3.38372C69.751 3.35038 69.701 3.33372 69.651 3.33372C67.151 3.76705 64.7676 4.51705 62.5343 5.55038C62.5176 5.55038 62.501 5.56705 62.4843 5.58372C57.951 12.3671 56.701 18.967 57.3176 25.5004C57.3176 25.5337 57.3343 25.5671 57.3676 25.5837C60.3676 27.7837 63.251 29.1171 66.101 30.0004C66.151 30.017 66.201 30.0004 66.2176 29.967C66.8843 29.0504 67.4843 28.0837 68.001 27.067C68.0343 27.0004 68.001 26.9337 67.9343 26.917C66.9843 26.5504 66.0843 26.1171 65.201 25.6171C65.1343 25.5837 65.1343 25.4837 65.1843 25.4337C65.3676 25.3004 65.551 25.1504 65.7343 25.017C65.7676 24.9837 65.8176 24.9837 65.851 25.0004C71.5843 27.6171 77.7676 27.6171 83.4343 25.0004C83.4676 24.9837 83.5176 24.9837 83.551 25.017C83.7343 25.167 83.9176 25.3004 84.101 25.4504C84.1676 25.5004 84.1676 25.6004 84.0843 25.6337C83.2176 26.1504 82.301 26.567 81.351 26.9337C81.2843 26.9504 81.2676 27.0337 81.2843 27.0837C81.8176 28.1004 82.4176 29.067 83.0676 29.9837C83.1176 30.0004 83.1676 30.017 83.2176 30.0004C86.0843 29.1171 88.9676 27.7837 91.9676 25.5837C92.001 25.5671 92.0176 25.5337 92.0176 25.5004C92.751 17.9504 90.801 11.4004 86.851 5.58372C86.8343 5.56705 86.8176 5.55038 86.7843 5.55038ZM68.8676 21.517C67.151 21.517 65.7176 19.9337 65.7176 17.9837C65.7176 16.0337 67.1176 14.4504 68.8676 14.4504C70.6343 14.4504 72.0343 16.0504 72.0176 17.9837C72.0176 19.9337 70.6176 21.517 68.8676 21.517ZM80.4843 21.517C78.7676 21.517 77.3343 19.9337 77.3343 17.9837C77.3343 16.0337 78.7343 14.4504 80.4843 14.4504C82.251 14.4504 83.651 16.0504 83.6343 17.9837C83.6343 19.9337 82.251 21.517 80.4843 21.517Z" fill="#DFDCFF"/>
<path d="M306.668 0.000383854C308.856 0.000383854 311.024 0.43148 313.046 1.26906C315.068 2.10664 316.905 3.33429 318.453 4.88194C320 6.42958 321.228 8.2669 322.066 10.289C322.903 12.3111 323.334 14.4784 323.334 16.667C323.334 21.0873 321.578 25.3266 318.453 28.4522C315.327 31.5778 311.088 33.3337 306.668 33.3337C299.001 33.3337 292.584 28.2004 290.601 21.217L296.984 23.8504C297.204 24.9176 297.785 25.8765 298.629 26.5656C299.472 27.2547 300.528 27.6319 301.618 27.6337C304.218 27.6337 306.334 25.517 306.334 22.917V22.7004L312.001 18.6504H312.134C315.601 18.6504 318.418 15.8337 318.418 12.3671C318.418 8.90038 315.601 6.08372 312.134 6.08372C308.668 6.08372 305.834 8.90038 305.834 12.3671V12.4504L301.884 18.2171L301.618 18.2004C300.634 18.2004 299.718 18.5004 298.968 19.017L290.001 15.3337C290.718 6.75038 297.884 0.000383854 306.668 0.000383854ZM300.468 25.2837C301.801 25.8337 303.334 25.2171 303.884 23.8837C304.434 22.5504 303.801 21.0337 302.501 20.4837L300.368 19.6004C301.184 19.3004 302.101 19.2837 302.968 19.6504C303.851 20.0004 304.534 20.6837 304.884 21.567C305.251 22.4337 305.251 23.4004 304.884 24.267C304.168 26.067 302.051 26.9337 300.251 26.1837C299.418 25.8337 298.784 25.2004 298.434 24.4504L300.468 25.2837ZM316.334 12.3671C316.334 14.6837 314.451 16.567 312.134 16.567C311.023 16.5626 309.959 16.1182 309.175 15.331C308.391 14.5438 307.951 13.4781 307.951 12.3671C307.949 11.8171 308.055 11.2721 308.265 10.7636C308.474 10.255 308.782 9.79297 309.171 9.40407C309.56 9.01517 310.022 8.70712 310.531 8.49766C311.039 8.28821 311.584 8.18151 312.134 8.18372C313.245 8.18371 314.311 8.62392 315.098 9.40797C315.885 10.192 316.33 11.256 316.334 12.3671ZM309.001 12.3671C309.001 14.1004 310.401 15.5171 312.151 15.5171C313.884 15.5171 315.284 14.1004 315.284 12.3671C315.284 10.6337 313.884 9.21705 312.151 9.21705C310.401 9.21705 309.001 10.6337 309.001 12.3671Z" fill="#DFDCFF"/>
<path d="M202.334 1.66705C203.218 1.66705 204.066 2.01824 204.691 2.64336C205.316 3.26848 205.668 4.11633 205.668 5.00038V28.3337C205.668 29.2178 205.316 30.0656 204.691 30.6907C204.066 31.3159 203.218 31.667 202.334 31.667H179.001C178.117 31.667 177.269 31.3159 176.644 30.6907C176.019 30.0656 175.668 29.2178 175.668 28.3337V5.00038C175.668 4.11633 176.019 3.26848 176.644 2.64336C177.269 2.01824 178.117 1.66705 179.001 1.66705H202.334ZM201.501 27.5004V18.667C201.501 17.226 200.929 15.8441 199.91 14.8251C198.891 13.8062 197.509 13.2337 196.068 13.2337C194.651 13.2337 193.001 14.1004 192.201 15.4004V13.5504H187.551V27.5004H192.201V19.2837C192.201 18.0004 193.234 16.9504 194.518 16.9504C195.136 16.9504 195.73 17.1962 196.168 17.6338C196.605 18.0714 196.851 18.6649 196.851 19.2837V27.5004H201.501ZM182.134 10.9337C182.877 10.9337 183.589 10.6387 184.114 10.1136C184.639 9.58852 184.934 8.87632 184.934 8.13372C184.934 6.58372 183.684 5.31705 182.134 5.31705C181.387 5.31705 180.671 5.61381 180.143 6.14203C179.614 6.67026 179.318 7.38669 179.318 8.13372C179.318 9.68372 180.584 10.9337 182.134 10.9337ZM184.451 27.5004V13.5504H179.834V27.5004H184.451Z" fill="#DFDCFF"/>
<path d="M132.668 0.000383854C130.479 0.000383854 128.312 0.43148 126.29 1.26906C124.267 2.10664 122.43 3.33429 120.883 4.88194C117.757 8.00754 116.001 12.2468 116.001 16.6671C116.001 24.0337 120.784 30.2837 127.401 32.5004C128.234 32.6337 128.501 32.1171 128.501 31.6671V28.8504C123.884 29.8504 122.901 26.6171 122.901 26.6171C122.134 24.6837 121.051 24.1671 121.051 24.1671C119.534 23.1337 121.168 23.1671 121.168 23.1671C122.834 23.2837 123.718 24.8837 123.718 24.8837C125.168 27.4171 127.618 26.6671 128.568 26.2671C128.718 25.1837 129.151 24.4504 129.618 24.0337C125.918 23.6171 122.034 22.1837 122.034 15.8337C122.034 13.9837 122.668 12.5004 123.751 11.3171C123.584 10.9004 123.001 9.16705 123.918 6.91705C123.918 6.91705 125.318 6.46705 128.501 8.61705C129.818 8.25038 131.251 8.06705 132.668 8.06705C134.084 8.06705 135.518 8.25038 136.834 8.61705C140.018 6.46705 141.418 6.91705 141.418 6.91705C142.334 9.16705 141.751 10.9004 141.584 11.3171C142.668 12.5004 143.301 13.9837 143.301 15.8337C143.301 22.2004 139.401 23.6004 135.684 24.0171C136.284 24.5337 136.834 25.5504 136.834 27.1004V31.6671C136.834 32.1171 137.101 32.6504 137.951 32.5004C144.568 30.2671 149.334 24.0337 149.334 16.6671C149.334 14.4784 148.903 12.3111 148.066 10.289C147.228 8.2669 146 6.42958 144.453 4.88194C142.905 3.33429 141.068 2.10664 139.046 1.26906C137.024 0.43148 134.856 0.000383854 132.668 0.000383854Z" fill="#DFDCFF"/>
<path d="M258.501 14.8337C253.168 11.667 244.251 11.3337 239.168 12.9171C238.334 13.1671 237.501 12.667 237.251 11.917C237.001 11.0837 237.501 10.2504 238.251 10.0004C244.168 8.25038 253.918 8.58372 260.084 12.2504C260.834 12.6671 261.084 13.667 260.668 14.417C260.251 15.0004 259.251 15.2504 258.501 14.8337ZM258.334 19.5004C257.918 20.0837 257.168 20.3337 256.584 19.917C252.084 17.167 245.251 16.3337 240.001 18.0004C239.334 18.167 238.584 17.8337 238.418 17.1671C238.251 16.5004 238.584 15.7504 239.251 15.5837C245.334 13.7504 252.834 14.6671 258.001 17.8337C258.501 18.0837 258.751 18.917 258.334 19.5004ZM256.334 24.0837C256.001 24.5837 255.418 24.7504 254.918 24.417C251.001 22.0004 246.084 21.5004 240.251 22.8337C239.668 23.0004 239.168 22.5837 239.001 22.0837C238.834 21.5004 239.251 21.0004 239.751 20.8337C246.084 19.4171 251.584 20.0004 255.918 22.6671C256.501 22.9171 256.584 23.5837 256.334 24.0837ZM248.668 0.000383854C246.479 0.000383854 244.312 0.43148 242.29 1.26906C240.267 2.10664 238.43 3.33429 236.883 4.88194C233.757 8.00754 232.001 12.2468 232.001 16.667C232.001 21.0873 233.757 25.3266 236.883 28.4522C238.43 29.9998 240.267 31.2275 242.29 32.065C244.312 32.9026 246.479 33.3337 248.668 33.3337C253.088 33.3337 257.327 31.5778 260.453 28.4522C263.578 25.3266 265.334 21.0873 265.334 16.667C265.334 14.4784 264.903 12.3111 264.066 10.289C263.228 8.2669 262 6.42958 260.453 4.88194C258.905 3.33429 257.068 2.10664 255.046 1.26906C253.024 0.43148 250.856 0.000383854 248.668 0.000383854Z" fill="#DFDCFF"/>
</g>
<defs>
<clipPath id="clip0_40_16">
<rect width="323.33" height="33.33" fill="white"/>
</clipPath>
</defs>
</svg>
