<svg width="40" height="40" viewBox="0 0 40 40" fill="none" xmlns="http://www.w3.org/2000/svg">
<path d="M21.7133 3.335C22.9295 3.33033 24.1458 3.34255 25.3617 3.37166L25.685 3.38333C26.0583 3.39666 26.4267 3.41333 26.8717 3.43333C28.645 3.51666 29.855 3.79666 30.9167 4.20833C32.0167 4.63166 32.9433 5.205 33.87 6.13166C34.7173 6.96434 35.373 7.97158 35.7917 9.08333C36.2033 10.145 36.4833 11.3567 36.5667 13.13C36.5867 13.5733 36.6033 13.9433 36.6167 14.3167L36.6267 14.64C36.6563 15.8553 36.6691 17.071 36.665 18.2867L36.6667 19.53V21.7133C36.6708 22.9296 36.658 24.1458 36.6283 25.3617L36.6183 25.685C36.605 26.0583 36.5883 26.4267 36.5683 26.8717C36.485 28.645 36.2017 29.855 35.7917 30.9167C35.3744 32.0296 34.7185 33.0377 33.87 33.87C33.0366 34.7172 32.0288 35.3729 30.9167 35.7917C29.855 36.2033 28.645 36.4833 26.8717 36.5667C26.4267 36.5867 26.0583 36.6033 25.685 36.6167L25.3617 36.6267C24.1458 36.6563 22.9296 36.6691 21.7133 36.665L20.47 36.6667H18.2883C17.0721 36.6708 15.8559 36.658 14.64 36.6283L14.3167 36.6183C13.921 36.604 13.5254 36.5873 13.13 36.5683C11.3567 36.485 10.1467 36.2017 9.08333 35.7917C7.97113 35.3739 6.96372 34.718 6.13166 33.87C5.2834 33.0371 4.62704 32.0293 4.20833 30.9167C3.79666 29.855 3.51666 28.645 3.43333 26.8717C3.41477 26.4762 3.3981 26.0806 3.38333 25.685L3.375 25.3617C3.34427 24.1458 3.33038 22.9296 3.33333 21.7133V18.2867C3.32868 17.071 3.3409 15.8553 3.37 14.64L3.38166 14.3167C3.395 13.9433 3.41166 13.5733 3.43166 13.13C3.515 11.355 3.795 10.1467 4.20666 9.08333C4.62562 7.97103 5.28327 6.96407 6.13333 6.13333C6.96482 5.28458 7.9716 4.62762 9.08333 4.20833C10.1467 3.79666 11.355 3.51666 13.13 3.43333L14.3167 3.38333L14.64 3.375C15.8553 3.34429 17.071 3.3304 18.2867 3.33333L21.7133 3.335ZM20 11.6683C18.8958 11.6527 17.7996 11.8567 16.775 12.2684C15.7503 12.6802 14.8177 13.2915 14.0314 14.0668C13.2451 14.842 12.6207 15.7659 12.1945 16.7846C11.7683 17.8033 11.5488 18.8966 11.5488 20.0008C11.5488 21.1051 11.7683 22.1984 12.1945 23.2171C12.6207 24.2358 13.2451 25.1596 14.0314 25.9349C14.8177 26.7102 15.7503 27.3215 16.775 27.7332C17.7996 28.145 18.8958 28.3489 20 28.3333C22.2101 28.3333 24.3297 27.4554 25.8925 25.8926C27.4554 24.3298 28.3333 22.2101 28.3333 20C28.3333 17.7899 27.4554 15.6702 25.8925 14.1074C24.3297 12.5446 22.2101 11.6683 20 11.6683ZM20 15.0017C20.6642 14.9894 21.3241 15.1097 21.9413 15.3553C22.5585 15.601 23.1206 15.9672 23.5946 16.4326C24.0687 16.8979 24.4453 17.4531 24.7024 18.0656C24.9595 18.6781 25.092 19.3357 25.0921 20C25.0922 20.6643 24.96 21.3219 24.703 21.9345C24.4461 22.5471 24.0697 23.1024 23.5958 23.5679C23.1219 24.0334 22.56 24.3998 21.9429 24.6457C21.3258 24.8916 20.6658 25.012 20.0017 25C18.6756 25 17.4038 24.4732 16.4661 23.5355C15.5284 22.5979 15.0017 21.3261 15.0017 20C15.0017 18.6739 15.5284 17.4021 16.4661 16.4645C17.4038 15.5268 18.6756 15 20.0017 15L20 15.0017ZM28.75 9.16833C28.2123 9.18985 27.7038 9.41858 27.331 9.80662C26.9582 10.1947 26.75 10.7119 26.75 11.25C26.75 11.7881 26.9582 12.3053 27.331 12.6934C27.7038 13.0814 28.2123 13.3101 28.75 13.3317C29.3025 13.3317 29.8324 13.1122 30.2231 12.7215C30.6138 12.3308 30.8333 11.8009 30.8333 11.2483C30.8333 10.6958 30.6138 10.1659 30.2231 9.77519C29.8324 9.38449 29.3025 9.165 28.75 9.165V9.16833Z" fill="#000000"/>
</svg>
