<svg width="24" height="24" viewBox="0 0 24 24" fill="none" xmlns="http://www.w3.org/2000/svg">
<path d="M22.0312 6.28125L22.0875 6.24375C21.975 6.0375 21.8063 5.85 21.6375 5.75625L12.5812 0.543748C12.4312 0.449998 12.225 0.412498 12 0.412498C11.775 0.412498 11.5688 0.468748 11.4188 0.543748L2.41875 5.775C2.1 5.9625 1.875 6.43125 1.875 6.7875V17.2312C1.875 17.4375 1.9125 17.6625 2.04375 17.8687L2.00625 17.8875C2.1 18.0375 2.23125 18.1687 2.3625 18.2437L11.4 23.475C11.55 23.5687 11.7563 23.6062 11.9813 23.6062C12.2063 23.6062 12.4125 23.55 12.5625 23.475L21.5625 18.2437C21.8813 18.0562 22.1063 17.5875 22.1063 17.2312V6.76875C22.125 6.61875 22.1063 6.45 22.0312 6.28125ZM12 16.5937C13.7063 16.5937 15.2063 15.6562 15.9938 14.2687L18.4125 15.6937C17.1375 17.9062 14.7375 19.4062 12 19.4062C7.9125 19.4062 4.59375 16.0875 4.59375 12C4.59375 7.9125 7.9125 4.59375 12 4.59375C14.7562 4.59375 17.1563 6.1125 18.4313 8.34375L15.9938 9.75C15.2063 8.34375 13.7063 7.40625 12 7.40625C9.46875 7.40625 7.40625 9.46875 7.40625 12C7.40625 14.5312 9.46875 16.5937 12 16.5937Z" fill="black"/>
</svg>
