<svg width="24" height="24" viewBox="0 0 24 24" fill="none" xmlns="http://www.w3.org/2000/svg">
<g clip-path="url(#clip0_49_28)">
<path d="M22.395 6C22.227 5.71125 21.996 5.457 21.7417 5.30925L12.9255 0.218999C12.4177 -0.0742509 11.5852 -0.0742509 11.0775 0.218999L2.26121 5.30925C1.75346 5.6025 1.33496 6.324 1.33496 6.9105V17.0902C1.33496 17.3835 1.43996 17.7112 1.60796 18C1.77221 18.2887 2.00696 18.543 2.26121 18.6877L11.073 23.781C11.5852 24.0742 12.4132 24.0742 12.921 23.781L21.7372 18.6877C21.9915 18.543 22.2225 18.2887 22.3905 18C22.5585 17.7112 22.6597 17.3827 22.6597 17.0902V6.9105C22.6635 6.61725 22.5585 6.2895 22.395 6.00075V6ZM12 19.1092C8.07821 19.1092 4.89071 15.9225 4.89071 12C4.89071 8.0775 8.07746 4.89075 12 4.89075C13.2468 4.89296 14.4712 5.22187 15.5513 5.84469C16.6314 6.46752 17.5295 7.36251 18.156 8.4405L15.078 10.2225C14.7649 9.68306 14.3161 9.23503 13.776 8.92303C13.236 8.61104 12.6236 8.44596 12 8.44425C10.0387 8.44425 8.44496 10.038 8.44496 11.9992C8.44496 13.9605 10.0387 15.5542 12 15.5542C12.6237 15.5526 13.236 15.3876 13.7761 15.0756C14.3161 14.7636 14.765 14.3155 15.078 13.776L18.156 15.558C17.5295 16.636 16.6314 17.531 15.5513 18.1538C14.4712 18.7766 13.2468 19.1055 12 19.1077V19.1092ZM19.1092 12.3952H18.3202V13.1842H17.5275V12.3952H16.7385V11.6055H17.5275V10.8165H18.3202V11.6055H19.1092V12.3952ZM22.0702 12.3952H21.2812V13.1842H20.4922V12.3952H19.7032V11.6055H20.4922V10.8165H21.2812V11.6055H22.0702V12.3952Z" fill="black"/>
</g>
<defs>
<clipPath id="clip0_49_28">
<rect width="24" height="24" fill="white"/>
</clipPath>
</defs>
</svg>
