<svg width="24" height="24" viewBox="0 0 24 24" fill="none" xmlns="http://www.w3.org/2000/svg">
<g clip-path="url(#clip0_49_44)">
<path d="M21.375 0H2.625C1.17525 0 0 1.17525 0 2.625V21.375C0 22.8247 1.17525 24 2.625 24H21.375C22.8247 24 24 22.8247 24 21.375V2.625C24 1.17525 22.8247 0 21.375 0Z" fill="black"/>
<path d="M17.4729 8.83106V15.0397C17.4729 17.1791 17.3163 18.2051 16.8468 19.0921C16.4119 19.9445 15.838 20.4835 14.6554 21.0749L12.1682 19.8923C13.351 19.3358 13.9249 18.8488 14.2901 18.1007C14.6728 17.3356 14.7946 16.4485 14.7946 14.1181V8.83106H17.4729ZM13.212 4.69481V17.0922C11.8381 17.353 10.8294 17.4574 9.73374 17.4574C6.46402 17.4574 4.75964 15.9792 4.75964 13.1442C4.75964 10.4137 6.56846 8.63981 9.36839 8.63981C9.80321 8.63981 10.1337 8.6745 10.5337 8.77884V4.695H13.2121L13.212 4.69481ZM9.62939 10.7963C8.27283 10.7963 7.49011 11.6311 7.49011 13.0919C7.49011 14.5182 8.23805 15.3007 9.61205 15.3007C9.90755 15.3007 10.1511 15.2834 10.5337 15.2314V10.9353C10.2207 10.831 9.95986 10.7963 9.62939 10.7963ZM17.4729 4.70906V7.45706H14.7946V4.70916L17.4729 4.70906Z" fill="#FFFFFD"/>
</g>
<defs>
<clipPath id="clip0_49_44">
<rect width="24" height="24" fill="white"/>
</clipPath>
</defs>
</svg>
