<svg width="24" height="24" viewBox="0 0 24 24" fill="none" xmlns="http://www.w3.org/2000/svg">
<path fill-rule="evenodd" clip-rule="evenodd" d="M9.42112 7.803C8.73075 7.62956 8.03944 7.68525 7.30988 7.79888C7.30988 9.07481 7.30725 10.3164 7.31681 11.5583C7.31719 11.6218 7.41262 11.7324 7.4745 11.7409C8.27006 11.8483 9.06131 11.8569 9.80531 11.4943C10.575 11.1193 10.9671 10.3352 10.8654 9.41456C10.7732 8.57625 10.2769 8.01806 9.42112 7.803ZM23.8125 11.9931V0.615938C23.8125 0.222938 23.8168 0.1875 23.4352 0.1875H0.652313C0.28125 0.1875 0.1875 0.223125 0.1875 0.597375V23.3803C0.1875 23.7587 0.23475 23.7593 0.601688 23.7593C8.20575 23.7594 15.8325 23.7576 23.4366 23.7662C23.7315 23.7666 23.8106 23.688 23.8099 23.3989C23.7998 19.5969 23.8125 15.7946 23.8125 11.9931ZM10.566 13.0881C9.52406 13.4597 8.4375 13.4805 7.3125 13.3933V17.625H5.25V17.3621C5.25 13.8193 5.23369 10.2769 5.22375 6.73425C5.22263 6.44006 5.26931 6.29794 5.60081 6.26419C7.16306 6.10444 8.7165 5.92481 10.2699 6.28913C11.9398 6.68044 12.9026 7.78444 12.9758 9.30975C13.0663 11.1986 12.2363 12.4924 10.566 13.0881ZM18.8741 15.4794C18.7946 16.5615 18.1845 17.2719 17.1838 17.6154C15.8447 18.0752 14.5129 17.9685 13.2041 17.4484C12.9898 17.3631 12.9484 17.2551 13.0191 17.0366C13.1479 16.638 13.2422 16.2281 13.3416 15.858C13.8949 16.0204 14.421 16.2231 14.9661 16.3189C15.351 16.3866 15.7671 16.3468 16.1584 16.2855C16.5092 16.2304 16.7616 15.9923 16.8191 15.6158C16.8776 15.2331 16.7623 14.9016 16.4244 14.6979C16.1559 14.5363 15.8601 14.4206 15.5764 14.2851C15.1202 14.067 14.634 13.896 14.2133 13.6232C12.5574 12.5494 13.0965 10.5514 14.2014 9.79894C14.7926 9.39656 15.4468 9.21806 16.1471 9.1935C16.9708 9.16463 17.7639 9.30675 18.543 9.68531L18.1314 11.1458C17.8052 11.0303 17.5014 10.8803 17.1808 10.8206C16.8004 10.7498 16.4014 10.7102 16.0174 10.7415C15.5025 10.7837 15.201 11.139 15.201 11.5796C15.201 11.8406 15.3 12.0615 15.5177 12.1881C15.8301 12.3698 16.1616 12.5196 16.4901 12.6716C16.8456 12.8361 17.2209 12.9624 17.5631 13.1501C18.4762 13.6508 18.9516 14.4251 18.8741 15.4794Z" fill="black"/>
</svg>
