<svg width="40" height="40" viewBox="0 0 40 40" fill="none" xmlns="http://www.w3.org/2000/svg">
<path d="M29.8333 18.1667C24.5 15 15.5833 14.6667 10.5 16.25C9.66665 16.5 8.83331 16 8.58331 15.25C8.33331 14.4167 8.83331 13.5833 9.58331 13.3333C15.5 11.5833 25.25 11.9167 31.4166 15.5833C32.1666 16 32.4166 17 32 17.75C31.5833 18.3333 30.5833 18.5833 29.8333 18.1667ZM29.6666 22.8333C29.25 23.4167 28.5 23.6667 27.9166 23.25C23.4166 20.5 16.5833 19.6667 11.3333 21.3333C10.6666 21.5 9.91665 21.1667 9.74998 20.5C9.58331 19.8333 9.91665 19.0833 10.5833 18.9167C16.6666 17.0833 24.1666 18 29.3333 21.1667C29.8333 21.4167 30.0833 22.25 29.6666 22.8333ZM27.6666 27.4167C27.3333 27.9167 26.75 28.0833 26.25 27.75C22.3333 25.3333 17.4166 24.8333 11.5833 26.1667C11 26.3333 10.5 25.9167 10.3333 25.4167C10.1666 24.8333 10.5833 24.3333 11.0833 24.1667C17.4166 22.75 22.9166 23.3333 27.25 26C27.8333 26.25 27.9166 26.9167 27.6666 27.4167ZM20 3.33334C17.8113 3.33334 15.644 3.76444 13.6219 4.60202C11.5998 5.4396 9.76251 6.66725 8.21487 8.2149C5.08926 11.3405 3.33331 15.5797 3.33331 20C3.33331 24.4203 5.08926 28.6595 8.21487 31.7851C9.76251 33.3328 11.5998 34.5604 13.6219 35.398C15.644 36.2356 17.8113 36.6667 20 36.6667C24.4203 36.6667 28.6595 34.9107 31.7851 31.7851C34.9107 28.6595 36.6666 24.4203 36.6666 20C36.6666 17.8113 36.2355 15.644 35.398 13.622C34.5604 11.5999 33.3327 9.76254 31.7851 8.2149C30.2374 6.66725 28.4001 5.4396 26.378 4.60202C24.3559 3.76444 22.1887 3.33334 20 3.33334Z" fill="#000000"/>
</svg>
